<svg width="81" height="85" viewBox="0 0 81 85" fill="none" xmlns="http://www.w3.org/2000/svg">
<g clip-path="url(#clip0_23_13771)">
<path d="M76.1575 24.9333H4.84229V60.0667H76.1575V24.9333Z" fill="#FABD00"/>
<path d="M76.1575 59.0065H4.84229V70.2504H76.1575V59.0065Z" fill="#FABD00"/>
<path d="M66.4728 69.8564H14.5271V80.1742H66.4728V69.8564Z" fill="#FABD00"/>
<path d="M76.1575 14.8065H4.84229V26.0504H76.1575V14.8065Z" fill="#FABD00"/>
<path d="M66.4728 4.88269H14.5271V15.2005H66.4728V4.88269Z" fill="#FABD00"/>
<path d="M9.68468 60.0667H4.84229V70.5226H9.68468V60.0667Z" fill="#000004"/>
<path d="M14.5272 70.5226H9.68481V75.3484H14.5272V70.5226Z" fill="#000004"/>
<path d="M25.0923 75.3484H14.5271V80.1742H25.0923V75.3484Z" fill="#000004"/>
<path d="M25.0923 80.1742V85H40.4999H55.9075V80.1742H40.4999H25.0923Z" fill="#000004"/>
<path d="M9.68478 24.9333V14.4774H4.84239V24.7505H0V60.0667H4.84239V24.9333H9.68478Z" fill="#000004"/>
<path d="M14.5272 9.65161H9.68481V14.4774H14.5272V9.65161Z" fill="#000004"/>
<path d="M25.0923 4.82581H14.5271V9.65161H25.0923V4.82581Z" fill="#000004"/>
<path d="M76.1576 24.7505V14.4774H71.3152V24.9333H76.1576V60.0667H81V24.7505H76.1576Z" fill="#000004"/>
<path d="M76.1576 60.0667H71.3152V70.5226H76.1576V60.0667Z" fill="#000004"/>
<path d="M71.3153 70.5226H66.4729V75.3484H71.3153V70.5226Z" fill="#000004"/>
<path d="M66.4729 75.3484H55.9077V80.1742H66.4729V75.3484Z" fill="#000004"/>
<path d="M71.3153 9.65161H66.4729V14.4774H71.3153V9.65161Z" fill="#000004"/>
<path d="M66.4729 4.82581H55.9077V9.65161H66.4729V4.82581Z" fill="#000004"/>
<path d="M55.9075 4.82581V0H40.4999H25.0923V4.82581H40.4999H55.9075Z" fill="#000004"/>
<path d="M20.3602 60.0667H15.1143V65.2946H20.3602V60.0667Z" fill="#FCFFFD"/>
<path d="M20.3602 19.6688H15.1143V24.8968H20.3602V19.6688Z" fill="#FCFFFD"/>
<path d="M25.0557 14.4774H19.8098V19.7054H25.0557V14.4774Z" fill="#FCFFFD"/>
<path d="M55.9077 9.45053H25.0925V14.6785H55.9077V9.45053Z" fill="#FCFFFD"/>
<path d="M14.9307 24.8968H9.68481V60.0667H14.9307V24.8968Z" fill="#FCFFFD"/>
<path d="M65.8492 19.6343H60.6033V24.8623H65.8492V19.6343Z" fill="#F79903"/>
<path d="M65.8492 60.0321H60.6033V65.2601H65.8492V60.0321Z" fill="#F79903"/>
<path d="M61.1534 65.2235H55.9075V70.4515H61.1534V65.2235Z" fill="#F79903"/>
<path d="M55.8709 70.2504H25.0557V75.4784H55.8709V70.2504Z" fill="#F79903"/>
<path d="M71.2784 24.8622H66.0325V60.0321H71.2784V24.8622Z" fill="#F79903"/>
<g clip-path="url(#clip1_23_13771)">
<path d="M49.4178 28.3538C49.8834 28.3518 50.3483 28.3559 50.8132 28.3449C51.0519 28.3394 51.1524 28.4369 51.1482 28.6688C51.1427 29.0118 51.1545 29.3549 51.1476 29.6979C51.1434 29.9182 51.239 30.0067 51.461 30.0012C51.7981 29.9929 52.136 30.0108 52.4731 29.9971C52.7502 29.9861 52.8472 30.1048 52.8354 30.3648C52.8228 30.6386 52.8326 30.9137 52.8333 31.1881C52.8347 31.6533 52.8354 31.654 53.3261 31.6554C53.6053 31.656 53.8845 31.6636 54.1637 31.6547C54.4115 31.6471 54.5267 31.7391 54.5169 31.9957C54.5043 32.3497 54.5218 32.7044 54.512 33.0591C54.5064 33.2505 54.5728 33.3198 54.7738 33.315C55.1451 33.3061 55.5179 33.3404 55.8892 33.324C56.1321 33.3137 56.2347 33.3919 56.2341 33.6279C56.2313 34.5418 56.2313 35.4557 56.2347 36.3696C56.2354 36.6015 56.1363 36.6982 55.8976 36.6906C55.5374 36.6797 55.1765 36.6968 54.8157 36.6872C54.5937 36.681 54.5016 36.7572 54.5106 36.9857C54.5253 37.3507 54.5085 37.7171 54.5148 38.0834C54.5183 38.2838 54.4422 38.373 54.2272 38.3688C53.8671 38.362 53.5062 38.3826 53.146 38.3798C52.9268 38.3785 52.827 38.4649 52.8319 38.6858C52.8396 39.0055 52.8179 39.3266 52.8368 39.6457C52.8542 39.9503 52.7237 40.0422 52.427 40.0402C51.0198 40.0306 49.6126 40.0354 48.2054 40.0368C47.7475 40.0368 47.7468 40.0388 47.7454 40.4971C47.7447 40.7599 47.76 41.0241 47.7412 41.2855C47.7203 41.5688 47.8271 41.6628 48.1174 41.6608C49.7229 41.6498 51.3276 41.6559 52.9331 41.6559C53.3289 41.6559 53.7247 41.6697 54.1197 41.6498C54.4311 41.634 54.5337 41.7589 54.5176 42.0518C54.5002 42.3709 54.5204 42.692 54.5127 43.0117C54.5078 43.2148 54.5874 43.3026 54.7996 43.2971C55.1717 43.2882 55.5444 43.3046 55.9165 43.2902C56.1161 43.2827 56.2187 43.3163 56.2131 43.5441C56.2047 43.9091 56.2201 44.2755 56.2361 44.6405C56.248 44.9129 56.1168 45.0007 55.8543 44.989C55.5179 44.9746 55.1793 44.9945 54.8422 44.9828C54.6056 44.9746 54.5023 45.0563 54.5113 45.2985C54.5246 45.6641 54.5064 46.0305 54.519 46.3962C54.526 46.602 54.4492 46.6892 54.2398 46.6892C52.7279 46.6864 51.2153 46.6857 49.7033 46.6885C49.4828 46.6885 49.3871 46.5945 49.3906 46.3777C49.3969 46.0003 49.3836 45.623 49.3962 45.2456C49.4025 45.0652 49.355 45.011 49.1624 45.0226C48.8029 45.0446 48.4406 45.048 48.0811 45.0281C47.825 45.0137 47.723 45.0796 47.7405 45.3472C47.7621 45.6888 47.7377 46.0333 47.7461 46.3756C47.7517 46.5945 47.6546 46.6899 47.4362 46.6878C47.0753 46.6851 46.7151 46.6933 46.3542 46.6885C46.1483 46.6857 46.0624 46.7722 46.0624 46.976C46.0652 49 46.0652 51.0233 46.0617 53.0473C46.061 53.2339 46.1455 53.2785 46.3179 53.2744C46.69 53.2654 47.0627 53.2744 47.4348 53.2709C47.6532 53.2689 47.751 53.3642 47.7468 53.5824C47.7398 53.9598 47.737 54.3371 47.7489 54.7145C47.7559 54.9265 47.6651 55.002 47.4613 54.9978C47.1472 54.9917 46.8317 55.0164 46.5197 54.9924C46.1762 54.9656 46.0234 55.0706 46.0583 55.4301C46.0855 55.7134 46.0534 56.0016 46.0659 56.287C46.0771 56.5471 45.9815 56.6658 45.7037 56.6534C45.3672 56.6383 45.0287 56.6623 44.6922 56.6465C44.4556 56.6356 44.3579 56.7007 44.3739 56.9512C44.3963 57.2928 44.3732 57.6373 44.3816 57.9796C44.3872 58.217 44.3132 58.3405 44.0424 58.3295C43.7059 58.3158 43.3681 58.3433 43.0309 58.3405C42.7971 58.3385 42.6896 58.4331 42.6945 58.6678C42.7015 58.9875 42.6882 59.3079 42.6966 59.6283C42.7029 59.8849 42.6023 60.0009 42.328 59.9995C40.851 59.9926 39.3733 59.9933 37.8963 59.9988C37.6464 59.9995 37.5319 59.9028 37.5368 59.6551C37.5431 59.358 37.5235 59.0596 37.541 58.7638C37.5591 58.4578 37.4495 58.322 37.1235 58.3385C36.8108 58.3542 36.4953 58.3199 36.1819 58.3302C35.9376 58.3385 35.8462 58.239 35.8511 58.0078C35.8587 57.6537 35.8399 57.2983 35.858 56.945C35.8692 56.7227 35.8043 56.6363 35.5684 56.6472C35.22 56.6637 34.8703 56.6417 34.522 56.6534C34.27 56.6616 34.1597 56.5676 34.1674 56.3145C34.1779 55.9721 34.1632 55.6284 34.1702 55.2853C34.1744 55.0822 34.0892 54.9937 33.8805 54.9972C33.5315 55.0033 33.1818 54.9848 32.8335 55.0013C32.5543 55.0143 32.4642 54.9059 32.481 54.639C32.5012 54.3083 32.4998 53.9756 32.4824 53.6449C32.467 53.3553 32.5948 53.2572 32.874 53.2682C33.1874 53.2805 33.5022 53.262 33.8163 53.273C34.0634 53.2812 34.173 53.1968 34.1723 52.9382C34.1653 50.9601 34.166 48.9821 34.1709 47.0041C34.1716 46.7619 34.069 46.6803 33.8359 46.6878C33.5224 46.6974 33.2069 46.6775 32.8935 46.6926C32.5983 46.707 32.4642 46.6075 32.4817 46.3008C32.5005 45.9701 32.4768 45.6374 32.4887 45.3067C32.4963 45.1036 32.4356 45.0206 32.2136 45.0288C31.8186 45.0439 31.4228 45.0398 31.0277 45.0226C30.8588 45.0151 30.8344 45.0803 30.8364 45.2196C30.8434 45.5852 30.8267 45.9516 30.8434 46.3173C30.8567 46.6055 30.7317 46.6954 30.4511 46.6933C28.9853 46.6851 27.5194 46.6864 26.0543 46.6933C25.8051 46.6947 25.6927 46.6219 25.7109 46.3578C25.7318 46.0504 25.699 45.7396 25.7213 45.4322C25.743 45.1331 25.6704 44.9931 25.3255 45.0274C24.9919 45.0611 24.652 45.0295 24.3141 45.0329C24.1166 45.035 24.0265 44.9678 24.0161 44.7544C23.9972 44.377 23.9972 44.001 24.007 43.6237C24.0126 43.3911 24.1047 43.2978 24.3441 43.306C24.7043 43.3184 25.0652 43.3026 25.4261 43.3088C25.6327 43.3122 25.7227 43.2305 25.7171 43.024C25.7088 42.7043 25.7318 42.3825 25.7116 42.0642C25.6913 41.7479 25.817 41.6484 26.1339 41.6505C28.0297 41.6614 29.9262 41.658 31.8221 41.6559C32.5675 41.6553 32.4782 41.7259 32.4845 41.0227C32.4866 40.8168 32.4698 40.6096 32.488 40.4059C32.5138 40.1157 32.3861 40.0313 32.1034 40.0333C30.7192 40.0429 29.3357 40.0381 27.9515 40.0374C27.398 40.0374 27.398 40.0368 27.3973 39.4844C27.3966 39.256 27.3819 39.0261 27.4008 38.799C27.4259 38.4917 27.3163 38.3579 26.9882 38.3771C26.6755 38.3949 26.36 38.3538 26.0473 38.3709C25.7716 38.386 25.7053 38.2646 25.7136 38.0251C25.7255 37.7054 25.7025 37.3843 25.7199 37.0653C25.7353 36.7881 25.6431 36.6694 25.3465 36.6858C24.9989 36.7057 24.6485 36.6838 24.3002 36.6906C24.0956 36.6927 24 36.6035 24 36.4052C24.0007 35.4687 24.0007 34.5322 24.0007 33.595C24.0007 33.3939 24.1005 33.3116 24.3057 33.315C24.6889 33.3212 25.0736 33.3027 25.4568 33.3143C25.6564 33.3205 25.7262 33.254 25.7206 33.0605C25.7109 32.7065 25.7283 32.3511 25.7157 31.997C25.7067 31.7418 25.8191 31.6478 26.0675 31.6547C26.3817 31.6636 26.6965 31.6403 27.0092 31.6595C27.3219 31.6794 27.4238 31.5511 27.4036 31.2581C27.3847 30.985 27.4154 30.7085 27.3959 30.4355C27.3729 30.1151 27.4838 29.971 27.8287 29.9957C28.1414 30.0176 28.4569 29.9929 28.7703 30.0012C28.9916 30.0067 29.09 29.9195 29.0851 29.6986C29.0781 29.3556 29.09 29.0125 29.0837 28.6695C29.0795 28.4382 29.1793 28.3388 29.4181 28.3449C29.7782 28.3545 30.1398 28.3374 30.5 28.349C30.7171 28.3559 30.7757 28.2736 30.7729 28.0671C30.7618 27.1991 30.7652 26.3305 30.7673 25.4626C30.7687 25.027 30.796 25.0029 31.2469 25.0009C31.5729 24.9995 31.8981 25.0043 32.2241 25.0009C32.4251 24.9988 32.5222 25.0839 32.5215 25.2884C32.5187 26.7744 32.5194 28.2612 32.5208 29.7473C32.5208 29.949 32.4272 30.0369 32.2234 30.0341C31.8863 30.03 31.5477 30.0485 31.212 30.03C30.916 30.0135 30.8211 30.1343 30.8371 30.4108C30.8546 30.7072 30.8274 31.0056 30.8441 31.302C30.8616 31.608 30.7471 31.7459 30.4246 31.7288C30.1231 31.7123 29.8194 31.7336 29.5172 31.724C29.2729 31.7164 29.1528 31.8001 29.1542 32.0581C29.1598 33.4859 29.1598 34.9143 29.1542 36.3421C29.1535 36.585 29.268 36.6557 29.4969 36.655C30.9391 36.6502 32.3819 36.6488 33.824 36.6563C34.0788 36.6577 34.1828 36.5719 34.1716 36.3174C34.1576 36.0093 34.1828 35.6992 34.1646 35.3919C34.1472 35.092 34.2665 34.9932 34.5695 34.9953C36.0235 35.0063 37.4774 35.0001 38.9314 35.0001C41.1532 35.0001 43.3751 34.9994 45.5969 35.0008C46.0527 35.0008 46.0597 35.009 46.0624 35.466C46.0638 35.763 46.068 36.0608 46.0617 36.3579C46.0576 36.5534 46.1267 36.655 46.3424 36.6543C47.8194 36.6509 49.2971 36.6502 50.7741 36.655C51.0065 36.6557 51.0764 36.5466 51.0757 36.338C51.0729 34.9102 51.0722 33.4818 51.0757 32.054C51.0764 31.8221 50.9807 31.7192 50.7427 31.726C50.4523 31.7343 50.1612 31.7295 49.8702 31.7267C49.4178 31.7233 49.392 31.6993 49.3899 31.2643C49.3857 30.3037 49.385 29.3439 49.3822 28.3834C49.3955 28.3731 49.406 28.3635 49.4178 28.3538Z" fill="black"/>
<path d="M49.3843 28.3825C48.9313 28.3811 48.4783 28.3756 48.0245 28.3811C47.8047 28.3838 47.7083 28.2933 47.7097 28.0751C47.7139 27.1502 47.7146 26.2247 47.7097 25.2998C47.7083 25.0755 47.8165 24.9966 48.0308 25C48.4029 25.0055 48.7742 25.0027 49.1463 25.0014C49.3166 25.0007 49.4583 25.0487 49.4555 25.2429C49.4401 26.2796 49.5176 27.3176 49.4178 28.3537C49.4059 28.3633 49.3955 28.3729 49.3843 28.3825Z" fill="black"/>
</g>
</g>
<defs>
<clipPath id="clip0_23_13771">
<rect width="81" height="85" fill="white"/>
</clipPath>
<clipPath id="clip1_23_13771">
<rect width="32.2368" height="35" fill="white" transform="translate(24 25)"/>
</clipPath>
</defs>
</svg>
