<svg width="81" height="85" viewBox="0 0 81 85" fill="none" xmlns="http://www.w3.org/2000/svg">
<g clip-path="url(#clip0_23_13815)">
<path d="M76.1575 24.9333H4.84229V60.0667H76.1575V24.9333Z" fill="#FABD00"/>
<path d="M76.1575 59.0065H4.84229V70.2504H76.1575V59.0065Z" fill="#FABD00"/>
<path d="M66.4728 69.8564H14.5271V80.1742H66.4728V69.8564Z" fill="#FABD00"/>
<path d="M76.1575 14.8065H4.84229V26.0504H76.1575V14.8065Z" fill="#FABD00"/>
<path d="M66.4728 4.88269H14.5271V15.2005H66.4728V4.88269Z" fill="#FABD00"/>
<path d="M9.68468 60.0667H4.84229V70.5226H9.68468V60.0667Z" fill="#000004"/>
<path d="M14.5272 70.5226H9.68481V75.3484H14.5272V70.5226Z" fill="#000004"/>
<path d="M25.0923 75.3484H14.5271V80.1742H25.0923V75.3484Z" fill="#000004"/>
<path d="M25.0923 80.1742V85H40.4999H55.9075V80.1742H40.4999H25.0923Z" fill="#000004"/>
<path d="M9.68478 24.9333V14.4774H4.84239V24.7505H0V60.0667H4.84239V24.9333H9.68478Z" fill="#000004"/>
<path d="M14.5272 9.65161H9.68481V14.4774H14.5272V9.65161Z" fill="#000004"/>
<path d="M25.0923 4.82581H14.5271V9.65161H25.0923V4.82581Z" fill="#000004"/>
<path d="M76.1576 24.7505V14.4774H71.3152V24.9333H76.1576V60.0667H81V24.7505H76.1576Z" fill="#000004"/>
<path d="M76.1576 60.0667H71.3152V70.5226H76.1576V60.0667Z" fill="#000004"/>
<path d="M71.3153 70.5226H66.4729V75.3484H71.3153V70.5226Z" fill="#000004"/>
<path d="M66.4729 75.3484H55.9077V80.1742H66.4729V75.3484Z" fill="#000004"/>
<path d="M71.3153 9.65161H66.4729V14.4774H71.3153V9.65161Z" fill="#000004"/>
<path d="M66.4729 4.82581H55.9077V9.65161H66.4729V4.82581Z" fill="#000004"/>
<path d="M55.9075 4.82581V0H40.4999H25.0923V4.82581H40.4999H55.9075Z" fill="#000004"/>
<path d="M20.3602 60.0667H15.1143V65.2946H20.3602V60.0667Z" fill="#FCFFFD"/>
<path d="M20.3602 19.6688H15.1143V24.8968H20.3602V19.6688Z" fill="#FCFFFD"/>
<path d="M25.0557 14.4774H19.8098V19.7054H25.0557V14.4774Z" fill="#FCFFFD"/>
<path d="M55.9077 9.45053H25.0925V14.6785H55.9077V9.45053Z" fill="#FCFFFD"/>
<path d="M14.9307 24.8968H9.68481V60.0667H14.9307V24.8968Z" fill="#FCFFFD"/>
<path d="M65.8492 19.6343H60.6033V24.8623H65.8492V19.6343Z" fill="#F79903"/>
<path d="M65.8492 60.0321H60.6033V65.2601H65.8492V60.0321Z" fill="#F79903"/>
<path d="M61.1534 65.2235H55.9075V70.4515H61.1534V65.2235Z" fill="#F79903"/>
<path d="M55.8709 70.2504H25.0557V75.4784H55.8709V70.2504Z" fill="#F79903"/>
<path d="M71.2784 24.8622H66.0325V60.0321H71.2784V24.8622Z" fill="#F79903"/>
<g clip-path="url(#clip1_23_13815)">
<path d="M41.7996 55.3334H38.1997V59H41.7996V55.3334Z" fill="black"/>
<path d="M41.7996 51.6668H38.1997V55.3334H41.7996V51.6668Z" fill="black"/>
<path d="M41.7996 48.0002H38.1997V51.6668H41.7996V48.0002Z" fill="black"/>
<path d="M41.7996 44.3336H38.1997V48.0002H41.7996V44.3336Z" fill="black"/>
<path d="M38.1997 44.3336H34.5999V48.0002H38.1997V44.3336Z" fill="black"/>
<path d="M41.7996 40.667H38.1997V44.3336H41.7996V40.667Z" fill="black"/>
<path d="M39.7197 40.667H36.1199V44.3336H39.7197V40.667Z" fill="black"/>
<path d="M41.7996 36.9998H38.1997V40.6664H41.7996V36.9998Z" fill="black"/>
<path d="M41.7996 33.3332H38.1997V36.9998H41.7996V33.3332Z" fill="black"/>
<path d="M38.1997 29.6666H34.5999V33.3332H38.1997V29.6666Z" fill="black"/>
<path d="M34.5999 26H31V29.6666H34.5999V26Z" fill="black"/>
<path d="M45.3994 48.0002H41.7996V51.6668H45.3994V48.0002Z" fill="black"/>
<path d="M45.3994 44.3336H41.7996V48.0002H45.3994V44.3336Z" fill="black"/>
<path d="M45.3994 40.667H41.7996V44.3336H45.3994V40.667Z" fill="black"/>
<path d="M45.3994 36.9998H41.7996V40.6664H45.3994V36.9998Z" fill="black"/>
<path d="M45.3994 33.3332H41.7996V36.9998H45.3994V33.3332Z" fill="black"/>
<path d="M49 44.3336H45.4001V48.0002H49V44.3336Z" fill="black"/>
<path d="M49 40.667H45.4001V44.3336H49V40.667Z" fill="black"/>
<path d="M49 36.9998H45.4001V40.6664H49V36.9998Z" fill="black"/>
<path d="M49 33.3332H45.4001V36.9998H49V33.3332Z" fill="black"/>
</g>
<path d="M52.5999 44.3336H49V48.0002H52.5999V44.3336Z" fill="black"/>
<path d="M52.5999 40.667H49V44.3336H52.5999V40.667Z" fill="black"/>
<path d="M52.5999 36.9998H49V40.6664H52.5999V36.9998Z" fill="black"/>
<path d="M52.5999 33.3332H49V36.9998H52.5999V33.3332Z" fill="black"/>
</g>
<defs>
<clipPath id="clip0_23_13815">
<rect width="81" height="85" fill="white"/>
</clipPath>
<clipPath id="clip1_23_13815">
<rect width="18" height="33" fill="white" transform="translate(31 26)"/>
</clipPath>
</defs>
</svg>
